<?xml version="1.0" standalone="no"?>
<!DOCTYPE svg PUBLIC "-//W3C//DTD SVG 20010904//EN"
 "http://www.w3.org/TR/2001/REC-SVG-20010904/DTD/svg10.dtd">
<svg version="1.0" xmlns="http://www.w3.org/2000/svg"
 width="600.000000pt" height="600.000000pt" viewBox="0 0 600.000000 600.000000"
 preserveAspectRatio="xMidYMid meet">
<metadata>
Created by potrace 1.11, written by Peter Selinger 2001-2013
</metadata>
<g transform="translate(0.000000,600.000000) scale(0.100000,-0.100000)"
fill="#000000" stroke="none">
<path d="M1070 5656 c0 -5 45 -146 101 -312 l101 -304 1214 0 c1249 0 1238 0
1205 -35 -5 -6 -20 -30 -33 -55 -19 -35 -210 -371 -270 -475 -6 -11 -35 -60
-63 -110 -29 -49 -64 -110 -77 -135 -14 -25 -60 -106 -103 -180 -42 -74 -87
-153 -100 -175 -30 -53 -144 -252 -165 -290 -35 -59 -185 -323 -263 -460 -44
-77 -88 -156 -99 -175 -11 -19 -115 -201 -231 -405 -115 -203 -220 -386 -232
-405 -17 -27 -258 -450 -593 -1040 -11 -19 -46 -80 -77 -135 -32 -55 -71 -125
-88 -155 -16 -30 -38 -67 -49 -82 -10 -14 -18 -28 -18 -30 0 -3 -32 -61 -71
-129 -39 -68 -83 -144 -97 -169 -13 -25 -29 -51 -35 -58 -7 -9 386 -12 1962
-12 l1971 0 0 319 0 319 -1371 1 c-754 0 -1373 2 -1376 5 -3 3 10 31 30 63 19
32 48 83 64 113 17 30 118 210 225 400 107 190 206 365 220 390 54 96 264 468
335 593 24 42 55 99 70 125 14 26 45 81 68 122 47 83 67 119 112 200 17 30 48
84 68 120 21 36 46 81 57 100 21 36 226 400 270 480 14 25 64 113 110 195 83
147 680 1206 730 1295 92 163 242 429 266 468 7 12 9 23 5 23 -43 7 -3773 2
-3773 -5z"/>
</g>
</svg>
