<?xml version="1.0" encoding="utf-8"?>
<!-- Generator: Adobe Illustrator 23.0.4, SVG Export Plug-In . SVG Version: 6.00 Build 0)  -->
<svg version="1.1" id="Laag_1" xmlns="http://www.w3.org/2000/svg" xmlns:xlink="http://www.w3.org/1999/xlink" x="0px" y="0px"
	 width="110.7px" height="39.1px" viewBox="0 0 110.7 39.1" style="enable-background:new 0 0 110.7 39.1;" xml:space="preserve">
<style type="text/css">
	.st0{fill:#FFFFFF;}
</style>
<g>
	<path class="st0" d="M73.6,33.1c-1.4,0.8-3.7,1.4-6.8,1.4c-9.2,0-14.8-5.9-14.8-15.1c0-8.6,5.1-14.8,14.9-14.8h9.6L78.8,0H66.1v0
		C54.3,0.3,46.4,8.4,46.4,20c0,11.1,7.6,19.1,19.1,19.1c5.8,0,10.7-1.8,13.3-3.2V19.8h-5.2V33.1z"/>
	<polygon class="st0" points="35.2,0.1 35.2,38.5 40.4,38.5 40.4,2 	"/>
	<path class="st0" d="M0,38.5l19.4-34l-17.6,0L0.3,0h27.3L8.5,33.9h19.9v4.6H0z"/>
	<path class="st0" d="M109.1,4.6H98.3v33.9h-5.3V4.6H82V0h28.6L109.1,4.6z"/>
</g>
</svg>
